<?xml version="1.0" encoding="iso-8859-1"?>
<!-- Generator: Adobe Illustrator 16.0.0, SVG Export Plug-In . SVG Version: 6.00 Build 0)  -->
<!DOCTYPE svg PUBLIC "-//W3C//DTD SVG 1.1//EN" "http://www.w3.org/Graphics/SVG/1.1/DTD/svg11.dtd">
<svg version="1.1" id="Capa_1" xmlns="http://www.w3.org/2000/svg" xmlns:xlink="http://www.w3.org/1999/xlink" x="0px" y="0px"
	 width="594.258px" height="594.258px" viewBox="0 0 594.258 594.258" style="enable-background:new 0 0 594.258 594.258;"
	 xml:space="preserve">
<g>
	<g>
		<path d="M506.877,87.381c-27.229-27.228-58.945-48.611-94.273-63.553C376.006,8.35,337.154,0.5,297.128,0.5
			c-40.025,0-78.877,7.85-115.475,23.329c-35.328,14.942-67.046,36.325-94.274,63.553c-27.228,27.228-48.61,58.946-63.552,94.273
			C8.349,218.252,0.5,257.103,0.5,297.129c0,40.025,7.849,78.877,23.328,115.475c14.942,35.328,36.325,67.047,63.553,94.273
			c27.228,27.229,58.946,48.611,94.273,63.553c36.598,15.48,75.449,23.328,115.475,23.328c40.025,0,78.877-7.848,115.475-23.328
			c35.328-14.941,67.047-36.324,94.273-63.553c27.229-27.227,48.611-58.945,63.553-94.273
			c15.48-36.598,23.328-75.449,23.328-115.475c0-40.026-7.848-78.877-23.328-115.475
			C555.486,146.328,534.105,114.609,506.877,87.381z M297.128,550.918c-140.163,0-253.789-113.625-253.789-253.789
			c0-140.164,113.626-253.789,253.789-253.789c140.163,0,253.79,113.626,253.79,253.789
			C550.918,437.293,437.291,550.918,297.128,550.918z"/>
		<path d="M297.129,594.258c-40.095,0-79.012-7.862-115.669-23.367c-35.386-14.967-67.158-36.385-94.432-63.66
			c-27.274-27.273-48.693-59.045-63.66-94.433C7.862,376.139,0,337.222,0,297.129c0-40.093,7.862-79.01,23.368-115.669
			c14.967-35.386,36.385-67.157,63.659-94.432c27.274-27.274,59.046-48.692,94.433-63.66C218.121,7.862,257.037,0,297.128,0
			s79.008,7.862,115.669,23.368c35.385,14.965,67.156,36.384,94.433,63.66c27.271,27.272,48.69,59.043,63.66,94.432
			c15.505,36.657,23.367,75.574,23.367,115.669c0,40.096-7.862,79.012-23.367,115.669c-14.967,35.388-36.385,67.159-63.66,94.433
			c-27.273,27.275-59.045,48.693-94.433,63.66C376.141,586.396,337.225,594.258,297.129,594.258z M297.128,1
			c-39.957,0-78.743,7.835-115.28,23.289c-35.268,14.917-66.933,36.263-94.115,63.446c-27.183,27.183-48.528,58.848-63.445,94.114
			C8.835,218.385,1,257.17,1,297.129c0,39.959,7.835,78.744,23.289,115.28c14.917,35.268,36.263,66.933,63.446,94.114
			c27.183,27.184,58.848,48.53,94.115,63.445c36.533,15.454,75.319,23.289,115.28,23.289s78.746-7.835,115.28-23.289
			c35.268-14.916,66.933-36.262,94.114-63.445c27.184-27.182,48.529-58.847,63.445-94.114
			c15.454-36.534,23.289-75.319,23.289-115.28s-7.835-78.747-23.289-115.28c-14.919-35.27-36.265-66.935-63.445-94.115
			c-27.185-27.185-58.85-48.531-94.114-63.446C375.871,8.835,337.085,1,297.128,1z M297.128,551.418
			c-67.923,0-131.78-26.45-179.809-74.479c-48.029-48.029-74.48-111.887-74.48-179.81s26.451-131.78,74.48-179.81
			C165.348,69.291,229.206,42.84,297.128,42.84c67.922,0,131.78,26.451,179.809,74.48c48.029,48.029,74.48,111.886,74.48,179.809
			s-26.451,131.78-74.48,179.81S365.051,551.418,297.128,551.418z M297.128,43.84c-67.656,0-131.262,26.347-179.102,74.187
			c-47.84,47.84-74.187,111.447-74.187,179.103c0,67.656,26.347,131.263,74.187,179.103c47.84,47.84,111.446,74.187,179.102,74.187
			s131.262-26.347,179.102-74.187c47.841-47.84,74.188-111.446,74.188-179.103c0-67.656-26.347-131.262-74.188-179.102
			C428.391,70.187,364.784,43.84,297.128,43.84z"/>
	</g>
	<g>
		<path d="M333.848,275.709c-8.436,0-15.299-6.863-15.299-15.3v-85.156c0-11.83-9.59-21.42-21.42-21.42
			c-11.83,0-21.42,9.59-21.42,21.42v85.156c0,32.058,26.081,58.14,58.139,58.14h129.328c11.83,0,21.42-9.59,21.42-21.42
			c0-11.83-9.59-21.42-21.42-21.42H333.848z"/>
		<path d="M463.176,319.049H333.848c-32.334,0-58.639-26.306-58.639-58.64v-85.156c0-12.087,9.833-21.92,21.92-21.92
			c12.087,0,21.92,9.833,21.92,21.92v85.156c0,8.161,6.639,14.8,14.799,14.8h129.328c12.087,0,21.92,9.833,21.92,21.92
			S475.263,319.049,463.176,319.049z M297.128,154.333c-11.535,0-20.92,9.385-20.92,20.92v85.156
			c0,31.783,25.857,57.64,57.639,57.64h129.328c11.535,0,20.92-9.385,20.92-20.92s-9.385-20.92-20.92-20.92H333.848
			c-8.712,0-15.799-7.088-15.799-15.8v-85.156C318.049,163.718,308.664,154.333,297.128,154.333z"/>
	</g>
</g>
<g>
</g>
<g>
</g>
<g>
</g>
<g>
</g>
<g>
</g>
<g>
</g>
<g>
</g>
<g>
</g>
<g>
</g>
<g>
</g>
<g>
</g>
<g>
</g>
<g>
</g>
<g>
</g>
<g>
</g>
</svg>
