<?xml version="1.0" encoding="iso-8859-1"?>
<!-- Generator: Adobe Illustrator 19.0.0, SVG Export Plug-In . SVG Version: 6.00 Build 0)  -->
<svg version="1.1" id="Layer_1" xmlns="http://www.w3.org/2000/svg" xmlns:xlink="http://www.w3.org/1999/xlink" x="0px" y="0px"
	 viewBox="0 0 202.62 202.62" style="enable-background:new 0 0 202.62 202.62;" xml:space="preserve">
<g>
	<g>
		<g>
			<path d="M117.956,17.1l2.746-12.358c0.255-1.153-0.026-2.359-0.765-3.284C119.195,0.537,118.08,0,116.897,0H85.724
				c-1.183,0-2.298,0.537-3.04,1.457c-0.738,0.925-1.02,2.131-0.765,3.284L84.665,17.1C41.018,24.978,7.793,63.222,7.793,109.103
				c0,51.565,41.953,93.517,93.517,93.517s93.517-41.953,93.517-93.517C194.828,63.222,161.603,24.978,117.956,17.1z M112.041,7.793
				l-1.731,7.793H92.311L90.58,7.793H112.041z M101.31,194.828c-47.269,0-85.724-38.455-85.724-85.724S54.041,23.38,101.31,23.38
				s85.724,38.455,85.724,85.724S148.579,194.828,101.31,194.828z"/>
			<path d="M113,109.103c0-5.073-3.267-9.358-7.793-10.972V38.966h-7.793v59.166c-4.526,1.614-7.793,5.899-7.793,10.972
				c0,6.446,5.244,11.69,11.69,11.69c0.581,0,1.138-0.089,1.697-0.171l24.498,36.747l6.484-4.323l-24.069-36.103
				C111.815,114.865,113,112.13,113,109.103z M101.31,113c-2.15,0-3.896-1.746-3.896-3.897c0-2.15,1.746-3.897,3.897-3.897
				c2.15,0,3.897,1.746,3.897,3.897S103.46,113,101.31,113z"/>
		</g>
	</g>
</g>
<g>
</g>
<g>
</g>
<g>
</g>
<g>
</g>
<g>
</g>
<g>
</g>
<g>
</g>
<g>
</g>
<g>
</g>
<g>
</g>
<g>
</g>
<g>
</g>
<g>
</g>
<g>
</g>
<g>
</g>
</svg>
